<?xml version="1.0" encoding="utf-8"?>
<!-- Generator: Adobe Illustrator 24.1.1, SVG Export Plug-In . SVG Version: 6.00 Build 0)  -->
<svg version="1.1" id="Livello_1" xmlns="http://www.w3.org/2000/svg" xmlns:xlink="http://www.w3.org/1999/xlink" x="0px" y="0px"
	 viewBox="0 0 500 500" style="enable-background:new 0 0 500 500;" xml:space="preserve">
<style type="text/css">
	.st0{enable-background:new    ;}
	.st1{opacity:0.3991;enable-background:new    ;}
	.st2{fill:#FFFFFF;}
	.st3{fill:#F0FEF4;}
	.st4{fill:#FEFEFE;}
</style>
<g class="st0">
	<g class="st1">
		<g>
			<defs>
				<rect id="SVGID_1_" x="29.67" y="31.12" width="431.46" height="431.46"/>
			</defs>
			<clipPath id="SVGID_2_">
				<use xlink:href="#SVGID_1_"  style="overflow:visible;"/>
			</clipPath>
		</g>
	</g>
	<g>
		<path class="st2" d="M245.14,463.57c-57.95,0-112.44-22.57-153.42-63.55c-40.98-40.98-63.55-95.47-63.55-153.42
			c0-57.95,22.57-112.44,63.55-153.42c40.98-40.98,95.47-63.55,153.42-63.55c57.96,0,112.44,22.57,153.42,63.55
			c40.98,40.98,63.55,95.47,63.55,153.42c0,57.96-22.57,112.44-63.55,153.42C357.58,441,303.1,463.57,245.14,463.57z M245.14,32.63
			c-117.98,0-213.97,95.99-213.97,213.97c0,117.99,95.99,213.97,213.97,213.97c117.99,0,213.97-95.99,213.97-213.97
			C459.12,128.61,363.13,32.63,245.14,32.63z M244.38,401.26c-86.35,0-156.6-70.36-156.6-156.84c0-86.48,70.25-156.84,156.6-156.84
			s156.6,70.36,156.6,156.84C400.99,330.9,330.73,401.26,244.38,401.26z M244.38,90.58c-84.7,0-153.6,69.01-153.6,153.84
			c0,84.83,68.91,153.84,153.6,153.84c84.7,0,153.6-69.01,153.6-153.84C397.99,159.6,329.08,90.58,244.38,90.58z"/>
	</g>
	<path class="st2" d="M320.01,131.6l-3.81,0.02c-43.83,0.23-103.34,0.39-137.48,0.24l-3.68-0.02l-0.09,3.68
		c-1.05,41.95-0.27,42.71,1.13,44.11l1.19,1.16l1.62-0.06c0.73-0.03,7.19-0.39,8.24-5.06c0.2-0.87,0.39-1.77,0.59-2.67
		c2.12-9.83,4.12-19.11,15.62-21.3c9.38-1.79,16.78-2.02,20.81-1.96v47.2c-6.18,2.45-21.33,9.83-27.76,25.31
		c-7.18,17.28-6.99,40.54,12.72,57.7c-0.83,0-1.63,0-2.31-0.03c-1.69-0.09-3.25,0.79-4.18,2.29c-1.24,2.01-1.27,5.27-0.07,7.42
		c0.88,1.57,2.41,2.52,4.09,2.52c7.16,0.02,20.86,0.07,24.51,0.08c3.82,2,20.56,10.84,32.27,18.41l0.2,0.13
		c3.73,2.35,8.2,6.79,8.28,14.6c0.04,4.6-2.03,11.56-8.02,16.06c-6.15,4.62-14.97,5.38-25.51,2.21
		c-25.5-7.67-35.52-33.8-37.23-43.22c-0.5-2.71-2.84-4.61-5.46-4.43c-2.36,0.17-4.13,2.02-4.22,4.4
		c-0.57,16.22-0.51,41.73-0.11,57.02c0.06,2.34,1.73,4.18,3.98,4.37c0.13,0.01,0.26,0.02,0.39,0.02c2.56,0,5.09-2.16,5.64-4.9
		c0.42-2.1,4.64-5.03,8.85-4.54c3.2,0.37,10.48,2.76,16.33,4.69c4.44,1.46,8.27,2.72,10.37,3.14c3.94,0.79,39.03,6.92,58.68-19.52
		c9.22-12.41,12.3-27.8,8.44-42.22c-4.33-16.23-16.64-29.63-34.72-37.85v-38.75c4.46,3.95,10.1,9.95,11.75,16.14l0.03,0.11
		c0.02,0.08,2.38,7.93,3.16,11.83c0.57,2.81,3.59,4.59,7.18,4.21c3.62-0.37,5.24-2.76,5.24-4.96c-0.01-3.53-0.03-7.65-0.06-12.11
		c-0.08-12.04-0.17-27.02,0.06-39.19c0.02-2.34-1.35-4.26-3.58-5.03c-1.75-0.6-4.94-0.44-6.92,0.75l0,0
		c-1.81,1.03-2.29,2.87-2.85,5.01c-1.28,4.9-2.21,5.69-3.8,5.59c-5.44-0.33-8.67-2.94-9.97-4.26v-50.65
		c9.87-0.46,28.04,1.02,32.01,11.95c3.16,8.68,4.27,13.05,4.8,15.15c0.57,2.24,1.28,5.03,5.2,5.06c3.14,0.01,5.37,0.03,6.95-1.55
		c0.79-0.79,1.22-1.84,1.22-2.95c-0.05-11.5,0.24-41.21,0.24-41.51L320.01,131.6z M314.13,177.09h-4.63c0,0,0,0.12-6.49-17.73
		c-6.49-17.85-39.29-14.14-39.29-14.14v55.51c0,0,5.45,3.13,13.91,6.95c8.46,3.83,8.34-10.43,8.34-10.43h4.87v51.34h-4.98
		l-3.24-12.17c-3.25-12.17-19.13-22.94-19.13-22.94v49c0.32,0.13,0.61,0.23,0.93,0.37c36.27,15.76,44.16,50.64,26.08,74.98
		c-18.08,24.34-50.3,19.01-54.93,18.08c-4.63-0.93-20.98-7.18-27-7.88c-6.02-0.7-10.9,8.69-10.9,8.69h-4.63v-57.37h4.87
		c0,0,9.74,39.05,37.32,47.28c27.58,8.23,38.48-9.97,38.36-21.9c-0.12-11.94-10.21-17.85-10.21-17.85l-33.37-19h-24.69v-5.22h12.4
		c0,0,0.06-0.15,0.06-0.16c-0.25-0.15-0.5-0.26-0.75-0.42c-25.73-16.23-26.66-41.14-19.24-58.99c7.42-17.85,28.05-24.11,28.05-24.11
		v-53.43c0,0-10.08-1.04-25.26,1.86c-15.18,2.9-19.01,28.97-19.01,28.97h-4.87V134.9l0.8,0.71l-0.22-0.82h136.87V177.09z"/>
	<g>
		<path class="st2" d="M226.28,211.13v29.13C226.28,240.25,208.28,225.08,226.28,211.13z"/>
	</g>
	<g>
		<path class="st3" d="M124.77,77.12c-3.26,0-5.91,2.64-5.91,5.91c0,3.26,2.65,5.91,5.91,5.91c3.26,0,5.91-2.64,5.91-5.91
			C130.68,79.76,128.03,77.12,124.77,77.12z M123.79,85.27c-1.77,0-3.21-1.44-3.21-3.21c0-1.77,1.44-3.21,3.21-3.21
			c1.77,0,3.21,1.44,3.21,3.21C127,83.83,125.57,85.27,123.79,85.27z"/>
	</g>
	<g>
		<path class="st3" d="M122.53,99.78c-3.26,0-5.91,2.64-5.91,5.91c0,3.26,2.65,5.91,5.91,5.91c3.26,0,5.91-2.64,5.91-5.91
			C128.44,102.42,125.79,99.78,122.53,99.78z M121.55,107.93c-1.77,0-3.21-1.44-3.21-3.21c0-1.77,1.44-3.21,3.21-3.21
			c1.77,0,3.21,1.44,3.21,3.21C124.77,106.48,123.33,107.93,121.55,107.93z"/>
	</g>
	<g>
		<path class="st3" d="M135.04,89.34c-3.26,0-5.91,2.65-5.91,5.91c0,3.26,2.65,5.91,5.91,5.91c3.26,0,5.91-2.65,5.91-5.91
			C140.95,91.98,138.3,89.34,135.04,89.34z M134.06,97.48c-1.77,0-3.21-1.44-3.21-3.21c0-1.77,1.44-3.22,3.21-3.22
			s3.21,1.44,3.21,3.22C137.27,96.05,135.84,97.48,134.06,97.48z"/>
	</g>
	<g>
		<path class="st3" d="M133.54,111.94c-3.26,0-5.91,2.65-5.91,5.91c0,3.26,2.65,5.91,5.91,5.91c3.26,0,5.91-2.65,5.91-5.91
			C139.46,114.59,136.81,111.94,133.54,111.94z M132.57,120.09c-1.77,0-3.21-1.44-3.21-3.21c0-1.77,1.44-3.21,3.21-3.21
			c1.77,0,3.21,1.44,3.21,3.21C135.78,118.65,134.35,120.09,132.57,120.09z"/>
	</g>
	<g>
		<path class="st3" d="M144.79,64.33c-3.26,0-5.91,2.65-5.91,5.91c0,3.26,2.65,5.91,5.91,5.91c3.26,0,5.91-2.65,5.91-5.91
			C150.7,66.97,148.05,64.33,144.79,64.33z M143.81,72.47c-1.77,0-3.21-1.44-3.21-3.21c0-1.77,1.44-3.21,3.21-3.21
			c1.77,0,3.21,1.44,3.21,3.21C147.03,71.04,145.59,72.47,143.81,72.47z"/>
	</g>
	<g>
		<path class="st3" d="M166.01,70.98c-3.26,0-5.91,2.64-5.91,5.91c0,3.26,2.64,5.91,5.91,5.91c3.26,0,5.91-2.64,5.91-5.91
			C171.92,73.62,169.28,70.98,166.01,70.98z M165.04,79.13c-1.77,0-3.21-1.44-3.21-3.21c0-1.77,1.44-3.21,3.21-3.21
			s3.21,1.44,3.21,3.21C168.25,77.69,166.81,79.13,165.04,79.13z"/>
	</g>
	<g>
		<path class="st3" d="M180.59,47.8c-3.26,0-5.91,2.65-5.91,5.91c0,3.26,2.65,5.91,5.91,5.91c3.26,0,5.91-2.65,5.91-5.91
			C186.49,50.45,183.85,47.8,180.59,47.8z M179.61,55.95c-1.77,0-3.21-1.44-3.21-3.21c0-1.77,1.44-3.21,3.21-3.21
			c1.77,0,3.21,1.44,3.21,3.21C182.82,54.51,181.38,55.95,179.61,55.95z"/>
	</g>
	<g>
		<path class="st3" d="M196.07,42.99c-3.26,0-5.91,2.65-5.91,5.91c0,3.26,2.64,5.91,5.91,5.91c3.26,0,5.91-2.65,5.91-5.91
			C201.98,45.63,199.34,42.99,196.07,42.99z M195.1,51.13c-1.77,0-3.21-1.44-3.21-3.21c0-1.78,1.44-3.21,3.21-3.21
			c1.77,0,3.21,1.44,3.21,3.21C198.31,49.7,196.87,51.13,195.1,51.13z"/>
	</g>
	<g>
		<path class="st3" d="M217.19,38.86c-3.26,0-5.91,2.65-5.91,5.91c0,3.26,2.65,5.91,5.91,5.91c3.26,0,5.91-2.65,5.91-5.91
			C223.09,41.5,220.45,38.86,217.19,38.86z M216.21,47c-1.77,0-3.21-1.44-3.21-3.21c0-1.77,1.44-3.21,3.21-3.21
			c1.77,0,3.21,1.44,3.21,3.21C219.42,45.56,217.98,47,216.21,47z"/>
	</g>
	<g>
		<path class="st3" d="M220.97,71.67c-3.26,0-5.91,2.64-5.91,5.91c0,3.26,2.65,5.91,5.91,5.91c3.26,0,5.91-2.64,5.91-5.91
			C226.88,74.31,224.23,71.67,220.97,71.67z M220,79.82c-1.77,0-3.21-1.44-3.21-3.21c0-1.77,1.44-3.21,3.21-3.21
			s3.21,1.44,3.21,3.21C223.21,78.38,221.77,79.82,220,79.82z"/>
	</g>
	<g>
		<path class="st3" d="M235.31,53.66c-3.26,0-5.91,2.65-5.91,5.91c0,3.26,2.65,5.91,5.91,5.91c3.26,0,5.91-2.65,5.91-5.91
			C241.22,56.3,238.57,53.66,235.31,53.66z M234.34,61.8c-1.77,0-3.21-1.44-3.21-3.21c0-1.77,1.44-3.21,3.21-3.21
			s3.21,1.44,3.21,3.21C237.55,60.36,236.11,61.8,234.34,61.8z"/>
	</g>
	<g>
		<path class="st3" d="M234.16,37.48c-3.26,0-5.91,2.65-5.91,5.91c0,3.26,2.64,5.91,5.91,5.91c3.26,0,5.91-2.65,5.91-5.91
			C240.07,40.13,237.43,37.48,234.16,37.48z M233.19,45.63c-1.77,0-3.21-1.44-3.21-3.21c0-1.77,1.44-3.21,3.21-3.21
			s3.21,1.44,3.21,3.21C236.4,44.19,234.96,45.63,233.19,45.63z"/>
	</g>
	<g>
		<path class="st3" d="M256.08,37.71c-3.26,0-5.91,2.64-5.91,5.91c0,3.26,2.64,5.91,5.91,5.91c3.26,0,5.91-2.64,5.91-5.91
			C261.98,40.35,259.34,37.71,256.08,37.71z M255.1,45.85c-1.77,0-3.21-1.44-3.21-3.21c0-1.77,1.44-3.21,3.21-3.21
			s3.21,1.44,3.21,3.21C258.32,44.42,256.88,45.85,255.1,45.85z"/>
	</g>
	<g>
		<path class="st3" d="M253.32,69.72c-3.26,0-5.91,2.65-5.91,5.91c0,3.26,2.64,5.91,5.91,5.91c3.26,0,5.91-2.65,5.91-5.91
			C259.23,72.36,256.59,69.72,253.32,69.72z M252.35,77.86c-1.77,0-3.21-1.44-3.21-3.21c0-1.77,1.44-3.21,3.21-3.21
			c1.77,0,3.22,1.44,3.22,3.21C255.56,76.43,254.12,77.86,252.35,77.86z"/>
	</g>
	<g>
		<path class="st3" d="M270.42,55.15c-3.26,0-5.91,2.64-5.91,5.91c0,3.26,2.64,5.91,5.91,5.91s5.91-2.64,5.91-5.91
			C276.33,57.79,273.68,55.15,270.42,55.15z M269.44,63.29c-1.77,0-3.21-1.44-3.21-3.21c0-1.77,1.44-3.21,3.21-3.21
			c1.77,0,3.21,1.44,3.21,3.21C272.66,61.86,271.22,63.29,269.44,63.29z"/>
	</g>
	<g>
		<path class="st3" d="M290.38,59.62c-3.26,0-5.91,2.64-5.91,5.91c0,3.26,2.65,5.91,5.91,5.91c3.26,0,5.91-2.64,5.91-5.91
			C296.29,62.27,293.64,59.62,290.38,59.62z M289.4,67.77c-1.77,0-3.21-1.44-3.21-3.21c0-1.77,1.44-3.21,3.21-3.21
			s3.21,1.44,3.21,3.21C292.62,66.33,291.18,67.77,289.4,67.77z"/>
	</g>
	<g>
		<path class="st3" d="M285.45,75c-3.26,0-5.91,2.64-5.91,5.91c0,3.26,2.64,5.91,5.91,5.91s5.91-2.65,5.91-5.91
			C291.36,77.64,288.71,75,285.45,75z M284.47,83.14c-1.77,0-3.21-1.44-3.21-3.21c0-1.77,1.44-3.21,3.21-3.21s3.21,1.44,3.21,3.21
			C287.68,81.7,286.25,83.14,284.47,83.14z"/>
	</g>
	<g>
		<path class="st3" d="M311.03,49.3c-3.26,0-5.91,2.64-5.91,5.91c0,3.26,2.65,5.91,5.91,5.91c3.26,0,5.91-2.65,5.91-5.91
			C316.94,51.94,314.3,49.3,311.03,49.3z M310.06,57.44c-1.77,0-3.21-1.44-3.21-3.21c0-1.77,1.44-3.21,3.21-3.21
			c1.77,0,3.21,1.44,3.21,3.21C313.27,56,311.83,57.44,310.06,57.44z"/>
	</g>
	<g>
		<path class="st3" d="M331.45,58.02c-3.26,0-5.91,2.65-5.91,5.91c0,3.26,2.64,5.91,5.91,5.91c3.26,0,5.91-2.64,5.91-5.91
			C337.36,60.66,334.72,58.02,331.45,58.02z M330.48,66.16c-1.77,0-3.21-1.44-3.21-3.21s1.44-3.21,3.21-3.21s3.21,1.44,3.21,3.21
			S332.25,66.16,330.48,66.16z"/>
	</g>
	<g>
		<path class="st3" d="M364.27,77.98c-3.26,0-5.91,2.65-5.91,5.91c0,3.26,2.64,5.91,5.91,5.91c3.26,0,5.91-2.65,5.91-5.91
			C370.18,80.63,367.53,77.98,364.27,77.98z M363.29,86.13c-1.77,0-3.21-1.44-3.21-3.21s1.44-3.21,3.21-3.21
			c1.77,0,3.21,1.44,3.21,3.21S365.07,86.13,363.29,86.13z"/>
	</g>
	<g>
		<path class="st3" d="M343.73,102.65c-3.26,0-5.91,2.65-5.91,5.91c0,3.26,2.64,5.91,5.91,5.91s5.91-2.65,5.91-5.91
			C349.64,105.29,347,102.65,343.73,102.65z M342.76,110.79c-1.77,0-3.21-1.44-3.21-3.21c0-1.77,1.44-3.21,3.21-3.21
			c1.77,0,3.21,1.44,3.21,3.21C345.97,109.35,344.53,110.79,342.76,110.79z"/>
	</g>
	<g>
		<path class="st3" d="M367.02,101.39c-3.26,0-5.91,2.64-5.91,5.91c0,3.26,2.64,5.91,5.91,5.91c3.26,0,5.91-2.64,5.91-5.91
			C372.93,104.03,370.29,101.39,367.02,101.39z M366.05,109.53c-1.77,0-3.21-1.44-3.21-3.21s1.44-3.21,3.21-3.21
			s3.21,1.44,3.21,3.21S367.82,109.53,366.05,109.53z"/>
	</g>
	<g>
		<path class="st3" d="M377.58,88.08c-3.26,0-5.91,2.64-5.91,5.91s2.64,5.91,5.91,5.91c3.26,0,5.91-2.64,5.91-5.91
			S380.84,88.08,377.58,88.08z M376.6,96.22c-1.77,0-3.21-1.44-3.21-3.21c0-1.77,1.44-3.21,3.21-3.21c1.77,0,3.21,1.44,3.21,3.21
			C379.81,94.78,378.38,96.22,376.6,96.22z"/>
	</g>
	<g>
		<path class="st2" d="M84.17,233.88c-0.04-7.16-14.05-8.12-14.11,0.19L70,242.08l-30.08,0.32c-9.07,0.1-7.55,15.66-0.24,15.71
			l29.74,0.19l0.28,8.89c0.21,6.73,14.54,6.59,14.54-0.53l0.01-17.38L84.17,233.88z M79.03,264.33c-0.01,2.15-6.58,2.33-6.6,0.14
			l-0.11-12.43l-33.88,0.28c-3.22,0.02-3.51-7.7-0.06-7.69l34.1,0.11l-0.2-11.33c-0.04-2.3,6.51-2.73,6.55,0.03l0.24,14.71
			L79.03,264.33z"/>
	</g>
	<g>
		<path class="st2" d="M101.01,316.53C100,314.5,90.43,294.2,90.43,294.2s-1.21-2.79-7.41-0.49l-2.13,0.79l-31.35,13.3
			c0,0-4.36,2.35-1.83,8.26c1.88,4.41,10.4,24.92,10.4,24.92s1.55,5.44,8.2,3.05c7.18-2.58,5.46-6.34,2.53-13.63
			c-1.6-3.97-5.3-11.22-5.3-11.22l4.24-1.8l5.98,12.84c0,0,2.56,6.46,9.88,3.96c3.03-1.03,4.42-4.75,2.87-8.72
			c-0.54-1.37-5.76-13.72-5.76-13.72l2.41-1.01l6.37,13.69c0,0,3.96,8.45,11.92,3.23C103.72,326.16,103.21,320.91,101.01,316.53z
			 M95.99,323.99c-2.65,1.1-3.63-1.16-3.63-1.16l-8.2-18.33l-9.42,4.3c0,0,6.83,15.37,7.29,16.77c0.46,1.41,0.95,2.53-1.95,3.9
			c-2.89,1.37-3.9-1.4-3.9-1.4l-7.44-16.92l-11.13,5.03c0,0,4.21,10.85,6.1,14.7c1.89,3.84,3.26,6.86,0.34,7.9
			c-2.93,1.04-4.12-1.77-4.12-1.77s-7.93-17.9-9.85-22.29c-1.92-4.39,2.01-5.76,2.01-5.76l30.61-13.17
			c3.93-2.07,4.61,0.49,4.61,0.49s9.36,20.55,10.28,22.62C98.49,320.97,98.64,322.89,95.99,323.99z"/>
	</g>
	<g>
		<path class="st2" d="M137.07,368.7c-0.82-3.44-2.53-6.71-5.08-9.73c-2.09-2.47-4.54-4.46-7.27-5.89
			c-2.77-1.46-5.75-2.29-8.84-2.46c-3.09-0.19-6.23,0.3-9.35,1.48c-3.03,1.16-6.03,3.02-8.9,5.52c-1.76,1.54-3.31,3.18-4.62,4.9
			c-1.3,1.74-2.38,3.6-3.22,5.54c-0.83,1.92-1.41,3.91-1.74,5.93c-0.34,2.26-0.35,4.45-0.01,6.52c0.36,2.05,1.06,4.08,2.07,6.05
			c0.98,1.91,2.3,3.84,3.91,5.74c2.19,2.6,4.59,4.56,7.12,5.82c2.54,1.28,5.09,1.98,7.59,2.11c0.36,0.02,0.71,0.02,1.05,0.02
			c2.04,0,3.92-0.28,5.58-0.82c2.03-0.65,3.73-1.57,5.05-2.72l0,0c1.39-1.21,2.18-2.8,2.28-4.6c0.11-1.77-0.44-3.42-1.58-4.78
			c-1.74-2.06-3.63-2.4-4.84-2.31c-1.21,0.06-2.55,0.39-3.87,0.94c-1.87,0.71-3.53,0.88-5.05,0.5c-1.48-0.37-2.82-1.27-4.07-2.75
			c-1.17-1.38-1.84-2.8-2.06-4.33c-0.21-1.5,0.08-3.05,0.9-4.73c0.91-1.85,2.51-3.79,4.76-5.75c3.3-2.88,6.38-4.41,9.15-4.55
			c2.6-0.12,4.64,0.81,6.42,2.91c1.1,1.3,1.71,2.58,1.84,3.91c0.16,1.44-0.13,3.11-0.84,4.96c-0.66,1.7-1,3-1.06,4.14
			c-0.06,1.51,0.51,2.99,1.71,4.41c1.17,1.38,2.76,2.14,4.58,2.21c1.75,0.06,3.36-0.5,4.66-1.63c1.82-1.59,3.12-3.93,3.86-6.95
			C137.94,375.37,137.89,372.14,137.07,368.7z M132.81,375.98c-0.58,2.43-1.56,4.25-2.91,5.44c-0.74,0.65-1.62,0.96-2.64,0.92
			c-1.02-0.04-1.84-0.44-2.48-1.2c-0.71-0.85-1.05-1.66-1.02-2.44c0.04-0.76,0.33-1.83,0.85-3.2c0.86-2.26,1.19-4.32,0.99-6.19
			c-0.19-1.86-1-3.64-2.44-5.35c-2.29-2.72-5.12-4.01-8.5-3.86c-3.37,0.17-6.92,1.89-10.63,5.17c-2.49,2.19-4.26,4.38-5.32,6.55
			c-1.04,2.16-1.42,4.26-1.14,6.28c0.28,2.03,1.16,3.92,2.64,5.68c1.6,1.91,3.41,3.11,5.42,3.62c2.04,0.5,4.24,0.31,6.59-0.6
			c1.08-0.46,2.06-0.71,2.93-0.76c0.89-0.06,1.72,0.38,2.49,1.3c0.66,0.79,0.96,1.7,0.9,2.75c-0.06,1.04-0.49,1.91-1.29,2.62
			c-1.02,0.9-2.34,1.61-3.97,2.14c-1.6,0.53-3.44,0.75-5.51,0.66c-2.06-0.11-4.16-0.7-6.31-1.79c-2.15-1.09-4.18-2.77-6.09-5.05
			c-1.45-1.73-2.61-3.44-3.47-5.14c-0.87-1.7-1.45-3.42-1.76-5.17c-0.28-1.75-0.27-3.59,0.02-5.54c0.28-1.75,0.78-3.47,1.5-5.17
			c0.74-1.71,1.68-3.35,2.83-4.9c1.16-1.54,2.53-3.01,4.12-4.4c2.57-2.27,5.19-3.92,7.87-4.95c2.69-1.02,5.35-1.44,7.98-1.28
			c2.65,0.15,5.16,0.85,7.53,2.11c2.37,1.26,4.46,2.97,6.28,5.15c2.22,2.65,3.69,5.47,4.39,8.45
			C133.36,370.81,133.41,373.53,132.81,375.98z"/>
	</g>
	<g>
		<path class="st4" d="M201.99,402.26c-0.6-2.05-2.01-3.62-4.06-4.55c-2.05-0.93-4.15-0.92-6.06,0.03
			c-1.72,0.84-3.11,2.46-4.11,4.79l-6.02,13.96l-3.27-19.93l0,0c-0.13-0.92-0.27-1.82-0.4-2.6c-0.15-1.09-0.38-2.02-0.66-2.77
			c-0.34-0.99-0.88-1.91-1.55-2.67c-0.73-0.86-1.69-1.56-2.86-2.08c-1.54-0.7-3.18-0.91-4.85-0.62c-1.71,0.27-3.18,1-4.45,2.22
			c-0.93,0.95-1.74,2.26-2.48,3.99l-13.65,31.67c-0.98,2.27-1.2,4.39-0.63,6.33c0.63,2.03,2.03,3.59,4.04,4.5
			c1.99,0.91,4.07,0.91,6,0.03c1.83-0.83,3.27-2.44,4.28-4.79l5.81-13.48l3.08,19.48c0.16,0.87,0.32,1.73,0.49,2.62
			c0.22,1.04,0.53,2.03,0.93,2.92c0.47,1.08,1.12,2.02,1.92,2.79c0.76,0.77,1.7,1.4,2.78,1.88c1.34,0.61,2.54,0.82,3.57,0.82
			c1.02,0,1.87-0.21,2.52-0.46c2.13-0.82,3.83-2.68,5.05-5.51l13.91-32.29C202.33,406.22,202.55,404.09,201.99,402.26z
			 M197.98,405.27l-14.12,32.37c-1.58,3.61-3.85,4.77-6.81,3.47c-0.74-0.33-1.36-0.73-1.86-1.22c-0.5-0.47-0.91-1.05-1.23-1.74
			c-0.31-0.7-0.56-1.45-0.73-2.26c-0.17-0.83-0.33-1.67-0.49-2.53l-4.91-30l-0.45-0.06l-10.2,23.39c-0.68,1.57-1.56,2.6-2.64,3.09
			c-1.08,0.49-2.18,0.48-3.31-0.01c-1.17-0.52-1.93-1.33-2.28-2.44c-0.35-1.14-0.18-2.48,0.5-4.03l13.85-31.76
			c0.59-1.35,1.2-2.34,1.83-2.98c0.72-0.69,1.6-1.11,2.65-1.28c1.05-0.18,2.05-0.07,3,0.35c0.74,0.32,1.32,0.72,1.73,1.2
			c0.43,0.48,0.75,1.01,0.96,1.59c0.23,0.59,0.4,1.3,0.53,2.14c0.14,0.84,0.28,1.72,0.41,2.63l5.3,31.23l10.68-24.48
			c0.69-1.59,1.55-2.63,2.55-3.13c1.04-0.5,2.13-0.5,3.28,0c1.19,0.52,1.95,1.33,2.28,2.44
			C198.85,402.34,198.67,403.68,197.98,405.27z"/>
	</g>
	<g>
		<path class="st2" d="M246.94,412.76c-4.02,0-7.21,1.32-9.5,3.92c-2.31,2.62-3.47,6.43-3.47,11.33c0,4.96,1.19,8.78,3.52,11.37
			c2.33,2.57,5.5,3.87,9.45,3.87c3.94,0,7.11-1.3,9.43-3.87c2.34-2.59,3.52-6.41,3.52-11.37c0-4.9-1.17-8.71-3.49-11.33
			C254.11,414.08,250.93,412.76,246.94,412.76z M255.12,439.13c-1.61,1.81-3.71,2.65-6.6,2.65c-2.91,0-5.03-0.85-6.65-2.66
			c-1.71-1.91-2.57-4.93-2.57-8.99c0-4.03,0.86-7.07,2.54-9.01c1.58-1.82,3.7-2.67,6.68-2.67c2.93,0,5.03,0.85,6.61,2.67
			c1.7,1.96,2.57,4.99,2.57,9.01C257.69,434.19,256.83,437.21,255.12,439.13z"/>
		<path class="st2" d="M270.88,419.84c-1.12-3.17-2.78-5.92-4.93-8.17l-0.01-0.01c-2.12-2.19-4.72-3.9-7.71-5.06
			c-2.91-1.14-6.19-1.71-9.74-1.71c-3.42,0-6.66,0.57-9.63,1.68c-3.08,1.17-5.72,2.9-7.84,5.14c-2.16,2.29-3.81,5.05-4.93,8.21
			c-1.06,3.04-1.6,6.47-1.6,10.21c0,3.8,0.54,7.27,1.62,10.31c1.13,3.16,2.78,5.88,4.91,8.11c2.15,2.23,4.77,3.95,7.79,5.11
			c2.93,1.12,6.18,1.69,9.67,1.69c3.57,0,6.83-0.56,9.69-1.66c2.98-1.14,5.59-2.87,7.77-5.13c2.11-2.18,3.76-4.9,4.9-8.08
			c1.11-3.07,1.67-6.55,1.67-10.34C272.51,426.35,271.96,422.89,270.88,419.84z M265.64,436.95c-0.96,2.64-2.33,4.88-4.06,6.64
			c-1.78,1.84-3.93,3.25-6.37,4.18c-2.42,0.93-5.22,1.39-8.31,1.39c-3.01,0-5.79-0.48-8.28-1.42c-2.49-0.95-4.64-2.35-6.39-4.16
			c-1.75-1.79-3.12-4.03-4.06-6.65c-0.93-2.6-1.4-5.6-1.4-8.92c0-3.27,0.47-6.24,1.39-8.83c0.93-2.62,2.3-4.9,4.1-6.78
			c1.71-1.79,3.86-3.18,6.39-4.13c2.52-0.94,5.3-1.42,8.25-1.42c3.08,0,5.88,0.48,8.34,1.44c2.47,0.95,4.6,2.33,6.34,4.11
			c1.78,1.82,3.16,4.08,4.09,6.71c0.93,2.61,1.4,5.61,1.4,8.9C267.08,431.32,266.6,434.33,265.64,436.95z"/>
	</g>
	<path class="st2" d="M399.2,377.62c-0.68-3-2.25-5.8-4.65-8.34c-1.71-1.8-3.71-2.97-5.91-3.45c-2.17-0.52-4.56-0.42-7.1,0.28
		c-2.38,0.64-5.08,1.88-8.03,3.68c-2.32,1.42-4.19,2.51-5.54,3.24c-1.16,0.63-2.19,0.99-3.03,1.07c-0.56,0.06-0.95-0.11-1.36-0.54
		c-0.31-0.33-0.64-0.85-0.45-2.04c0.18-1.15,0.75-2.23,1.75-3.29c0.96-1.02,1.88-1.65,2.67-1.84c0.92-0.22,1.87-0.24,2.92-0.04
		c1.73,0.3,3.12,0.42,4.29,0.37c1.49-0.1,2.8-0.73,3.88-1.88c1.38-1.47,2.05-3.08,1.99-4.77c-0.03-1.7-0.68-3.23-1.93-4.55
		c-1.08-1.14-2.51-1.96-4.23-2.4c-1.65-0.46-3.49-0.51-5.46-0.17c-1.91,0.32-3.95,1.11-6.04,2.34c-2.04,1.19-4.06,2.85-6.02,4.93
		c-2.54,2.69-4.29,5.55-5.19,8.47c-0.92,2.95-1.07,5.83-0.44,8.54c0.63,2.72,1.87,5.07,3.68,6.98c2.08,2.19,4.44,3.48,7.02,3.85
		c2.45,0.34,4.99,0.04,7.59-0.9c2.36-0.9,5.19-2.34,8.41-4.29c3.15-1.94,4.91-2.58,5.83-2.77c0.59-0.13,1.43-0.12,2.58,1.09
		c0.17,0.18,0.7,0.74,0.5,2.38c-0.16,1.26-0.78,2.46-1.92,3.66c-1.45,1.54-2.85,2.46-4.13,2.73c-1.35,0.27-2.93,0.1-4.68-0.48
		c-1.33-0.47-2.53-0.71-3.52-0.69c-1.37,0-2.63,0.61-3.76,1.81c-1.21,1.28-1.81,2.9-1.73,4.67c0.08,1.72,0.74,3.24,1.94,4.5
		c1.59,1.67,3.69,2.79,6.26,3.33c0.77,0.16,1.57,0.24,2.4,0.24c1.87,0,3.86-0.4,5.96-1.2c2.95-1.12,5.84-3.17,8.59-6.08
		c2.83-3,4.86-6.06,6.02-9.11C399.59,383.78,399.86,380.64,399.2,377.62z M395.4,385.17c-1.06,2.73-2.92,5.46-5.59,8.21
		c-2.55,2.63-5.16,4.43-7.85,5.41c-2.69,0.98-5.11,1.26-7.27,0.82c-2.18-0.45-3.93-1.36-5.24-2.7c-0.87-0.89-1.34-1.94-1.4-3.14
		c-0.06-1.21,0.33-2.25,1.17-3.12c0.74-0.77,1.52-1.15,2.32-1.15c0.81,0.01,1.76,0.2,2.85,0.57c2.14,0.7,4.06,0.88,5.76,0.56
		c1.72-0.34,3.45-1.41,5.2-3.21c1.42-1.47,2.23-3.02,2.44-4.66c0.2-1.68-0.15-2.99-1.06-3.92c-1.39-1.43-2.88-1.98-4.47-1.65
		c-1.58,0.31-3.73,1.28-6.48,2.92c-3.12,1.82-5.82,3.15-8.09,3.99c-2.28,0.8-4.49,1.05-6.62,0.75c-2.14-0.3-4.09-1.37-5.87-3.19
		c-1.58-1.63-2.66-3.6-3.22-5.92c-0.56-2.32-0.44-4.76,0.38-7.31c0.81-2.59,2.39-5.08,4.72-7.5c1.84-1.89,3.69-3.37,5.57-4.44
		c1.9-1.08,3.69-1.76,5.37-2.03c1.7-0.28,3.24-0.24,4.61,0.13c1.39,0.36,2.5,0.96,3.33,1.81c0.91,0.93,1.38,1.98,1.41,3.15
		c0.04,1.15-0.44,2.24-1.44,3.28c-0.73,0.75-1.58,1.16-2.57,1.22c-0.96,0.04-2.24-0.07-3.83-0.34c-1.31-0.24-2.56-0.22-3.75,0.05
		c-1.19,0.27-2.41,1.05-3.66,2.34c-1.28,1.32-2.04,2.73-2.26,4.25c-0.25,1.49,0.08,2.7,0.99,3.63c0.83,0.86,1.83,1.24,2.99,1.15
		c1.15-0.11,2.42-0.53,3.83-1.26c1.4-0.73,3.28-1.8,5.64-3.19c2.8-1.66,5.3-2.77,7.52-3.35c2.24-0.59,4.28-0.67,6.13-0.24
		c1.85,0.4,3.5,1.34,4.95,2.83c2.19,2.24,3.58,4.66,4.2,7.24C396.69,379.75,396.46,382.41,395.4,385.17z"/>
	<g>
		<path class="st2" d="M419.44,314.48l-18.74-1.43l13.45,13.06L419.44,314.48z M416.56,318.65l-1.52,3.34l-3.86-3.75L416.56,318.65z
			"/>
		<path class="st2" d="M444.25,310.14c-0.69-1.91-1.96-3.32-3.64-4.08c-1.29-0.59-3.18-0.9-5.92-0.98l-29.7-1.23
			c-1.51-0.09-2.72-0.15-3.6-0.17c-1.12-0.05-2.22,0.03-3.3,0.22c-1.33,0.23-2.59,0.78-3.73,1.6c-1.22,0.87-2.21,2.13-2.93,3.75
			c-0.72,1.6-1.01,3.15-0.88,4.63c0.13,1.42,0.57,2.73,1.3,3.9c0.58,0.94,1.35,1.9,2.37,2.97c0.84,0.87,1.57,1.61,2.16,2.21
			l20.73,21.42c0.87,0.92,1.6,1.65,2.19,2.17c0.73,0.64,1.51,1.15,2.29,1.5c0.88,0.41,1.81,0.61,2.76,0.61
			c0.91,0,1.84-0.19,2.76-0.57c1.82-0.74,3.2-2.05,3.98-3.77c1.22-2.65,0.7-4.64,0.05-5.85c-0.61-1.12-1.77-2.51-3.65-4.39
			l-2.58-2.56l5.36-11.79l3.61,0.22c0.73,0.03,1.58,0.05,2.57,0.07c1.26,0.01,2.24-0.08,3.02-0.28c0.97-0.25,1.85-0.69,2.64-1.33
			c0.81-0.66,1.46-1.54,1.94-2.6C444.86,313.98,444.94,312.02,444.25,310.14z M439.21,313.14c-0.28,0.62-0.63,1.1-1.06,1.44
			c-0.42,0.34-0.89,0.58-1.41,0.71c-0.52,0.13-1.25,0.19-2.19,0.17c-0.94-0.01-1.77-0.03-2.49-0.06l-5.73-0.36l-7.19,15.83
			l4.15,4.13c1.62,1.61,2.65,2.83,3.1,3.65c0.45,0.82,0.41,1.82-0.12,2.99c-0.45,0.99-1.21,1.7-2.28,2.14
			c-1.07,0.43-2.07,0.44-2.99,0.02c-0.53-0.24-1.04-0.58-1.53-1.01s-1.14-1.08-1.97-1.95l-20.77-21.45
			c-0.6-0.61-1.31-1.35-2.15-2.21c-0.84-0.86-1.49-1.67-1.96-2.43s-0.74-1.6-0.83-2.52c-0.08-0.92,0.12-1.93,0.61-3.01
			c0.5-1.1,1.12-1.92,1.87-2.47c0.75-0.55,1.56-0.9,2.42-1.05s1.74-0.21,2.63-0.18c0.89,0.03,2.08,0.09,3.55,0.19l29.75,1.24
			c2.28,0.07,3.85,0.3,4.71,0.7c0.9,0.41,1.56,1.16,1.97,2.26C439.73,311,439.69,312.07,439.21,313.14z"/>
	</g>
	<path class="st4" d="M454.09,257.29c-1.51-1.33-3.56-2-6.11-1.95l-14.68,0.17l16.55-10.73c0.73-0.5,1.45-0.99,2.19-1.51
		c0.86-0.62,1.63-1.3,2.3-2.04c0.81-0.89,1.41-1.88,1.75-2.84c0.39-1.01,0.6-2.13,0.61-3.34c0.02-2.93-1.16-4.72-2.14-5.7
		c-1.62-1.61-4.04-2.4-7.08-2.38l-35.16,0.39c-2.53,0.03-4.56,0.69-6,1.94c-1.63,1.38-2.49,3.31-2.5,5.55
		c-0.02,2.24,0.84,4.15,2.49,5.53c1.47,1.23,3.49,1.83,6.04,1.81l15.2-0.17l-16.89,11.09l0,0c-0.8,0.5-1.56,0.99-2.22,1.42
		c-0.93,0.58-1.71,1.18-2.27,1.73c-0.77,0.72-1.38,1.58-1.8,2.5c-0.48,1-0.73,2.16-0.74,3.46c-0.01,1.7,0.47,3.29,1.39,4.66
		c0.94,1.46,2.2,2.52,3.85,3.18c1.17,0.44,2.6,0.65,4.33,0.65c0.11,0,0.21,0,0.32,0l34.48-0.39c2.48-0.03,4.5-0.69,6.04-2
		c1.6-1.4,2.45-3.31,2.47-5.52C456.53,260.62,455.69,258.71,454.09,257.29z M450.76,267.59c-0.89,0.78-2.19,1.17-3.88,1.18
		l-34.64,0.24c-1.47,0.01-2.63-0.14-3.47-0.46c-0.92-0.38-1.67-1.01-2.24-1.9c-0.6-0.89-0.9-1.85-0.9-2.88
		c0-0.81,0.12-1.5,0.39-2.07c0.26-0.59,0.62-1.1,1.07-1.53c0.45-0.45,1.03-0.9,1.74-1.35c0.71-0.47,1.46-0.95,2.23-1.44l26.39-17.53
		l-26.71,0.18c-1.73,0.01-3.03-0.34-3.9-1.07c-0.88-0.74-1.32-1.74-1.33-3c0-1.3,0.43-2.32,1.31-3.08c0.85-0.75,2.15-1.14,3.89-1.15
		L446,231.5c3.94-0.03,5.92,1.58,5.94,4.82c0,0.81-0.12,1.54-0.36,2.19c-0.22,0.65-0.59,1.26-1.1,1.83c-0.51,0.57-1.1,1.1-1.77,1.59
		c-0.69,0.49-1.39,0.98-2.11,1.47l-25.42,16.67l0.13,0.43l25.52-0.18c1.72-0.01,3.02,0.38,3.9,1.16c0.88,0.78,1.33,1.79,1.33,3.03
		C452.07,265.79,451.64,266.82,450.76,267.59z"/>
	<path class="st2" d="M332.96,409.12c-1.27-2.56-4.36-3.59-6.92-2.32l-21.36,10.64c-2.56,1.27-3.59,4.36-2.32,6.91
		c1.27,2.56,4.36,3.59,6.92,2.32l21.36-10.64C333.2,414.76,334.24,411.67,332.96,409.12z M326.5,415.74l-15.82,7.88
		c-1.89,0.94-4.18,0.18-5.12-1.71c-0.94-1.89-0.18-4.18,1.72-5.12l15.82-7.88c1.89-0.94,4.18-0.18,5.12,1.71
		C329.16,412.51,328.39,414.8,326.5,415.74z"/>
</g>
</svg>
